<svg width="267" height="53" viewBox="0 0 267 53" fill="none" xmlns="http://www.w3.org/2000/svg">
<rect width="267" height="53" rx="26.5" fill="#8F64E1"/>
<g clip-path="url(#clip0_1_500)">
<path d="M51.5 17.125C45.25 17.125 39.9125 21.0125 37.75 26.5C39.9125 31.9875 45.25 35.875 51.5 35.875C57.7563 35.875 63.0875 31.9875 65.25 26.5C63.0875 21.0125 57.7563 17.125 51.5 17.125ZM51.5 32.75C48.05 32.75 45.25 29.95 45.25 26.5C45.25 23.05 48.05 20.25 51.5 20.25C54.95 20.25 57.75 23.05 57.75 26.5C57.75 29.95 54.95 32.75 51.5 32.75ZM51.5 22.75C49.4312 22.75 47.75 24.4313 47.75 26.5C47.75 28.5688 49.4312 30.25 51.5 30.25C53.5688 30.25 55.25 28.5688 55.25 26.5C55.25 24.4313 53.5688 22.75 51.5 22.75Z" fill="white"/>
</g>
<path d="M81.072 33L76.878 19.86H79.524L82.998 31.236L82.242 30.876H84.186L83.412 31.236L86.616 19.86H89.172L85.284 33H81.072ZM91.222 33V23.226H93.724V33H91.222ZM89.854 25.098V23.226H93.724V25.098H89.854ZM92.14 22.056C91.648 22.056 91.282 21.93 91.042 21.678C90.814 21.414 90.7 21.09 90.7 20.706C90.7 20.298 90.814 19.968 91.042 19.716C91.282 19.464 91.648 19.338 92.14 19.338C92.632 19.338 92.992 19.464 93.22 19.716C93.448 19.968 93.562 20.298 93.562 20.706C93.562 21.09 93.448 21.414 93.22 21.678C92.992 21.93 92.632 22.056 92.14 22.056ZM100.982 33.342C100.142 33.342 99.4035 33.198 98.7675 32.91C98.1435 32.622 97.6215 32.238 97.2015 31.758C96.7935 31.266 96.4815 30.72 96.2655 30.12C96.0615 29.52 95.9595 28.908 95.9595 28.284V27.942C95.9595 27.294 96.0615 26.67 96.2655 26.07C96.4815 25.458 96.7935 24.918 97.2015 24.45C97.6215 23.97 98.1375 23.592 98.7495 23.316C99.3615 23.028 100.07 22.884 100.874 22.884C101.93 22.884 102.812 23.118 103.52 23.586C104.24 24.042 104.78 24.648 105.14 25.404C105.5 26.148 105.68 26.952 105.68 27.816V28.716H97.0215V27.186H104.114L103.34 27.942C103.34 27.318 103.25 26.784 103.07 26.34C102.89 25.896 102.614 25.554 102.242 25.314C101.882 25.074 101.426 24.954 100.874 24.954C100.322 24.954 99.8535 25.08 99.4695 25.332C99.0855 25.584 98.7915 25.95 98.5875 26.43C98.3955 26.898 98.2995 27.462 98.2995 28.122C98.2995 28.734 98.3955 29.28 98.5875 29.76C98.7795 30.228 99.0735 30.6 99.4695 30.876C99.8655 31.14 100.37 31.272 100.982 31.272C101.594 31.272 102.092 31.152 102.476 30.912C102.86 30.66 103.106 30.354 103.214 29.994H105.518C105.374 30.666 105.098 31.254 104.69 31.758C104.282 32.262 103.76 32.652 103.124 32.928C102.5 33.204 101.786 33.342 100.982 33.342ZM111.03 33L112.884 23.55H115.764L117.906 33H115.926L113.748 23.604H114.792L112.866 33H111.03ZM110.292 33L110.274 30.948H112.272V33H110.292ZM109.284 33L106.62 23.226H109.05L111.588 33H109.284ZM116.556 33V30.948H118.554L118.536 33H116.556ZM117.348 33L119.598 23.226H121.866L119.508 33H117.348ZM130.115 28.968V26.754H132.671C133.187 26.754 133.619 26.652 133.967 26.448C134.327 26.244 134.597 25.962 134.777 25.602C134.969 25.242 135.065 24.828 135.065 24.36C135.065 23.892 134.969 23.478 134.777 23.118C134.597 22.758 134.327 22.482 133.967 22.29C133.619 22.086 133.187 21.984 132.671 21.984H130.115V19.77H132.455C133.559 19.77 134.495 19.95 135.263 20.31C136.043 20.67 136.637 21.186 137.045 21.858C137.453 22.518 137.657 23.304 137.657 24.216V24.504C137.657 25.416 137.453 26.208 137.045 26.88C136.637 27.54 136.043 28.056 135.263 28.428C134.495 28.788 133.559 28.968 132.455 28.968H130.115ZM127.919 33V19.77H130.475V33H127.919ZM144.126 33.342C143.262 33.342 142.5 33.204 141.84 32.928C141.18 32.652 140.622 32.28 140.166 31.812C139.71 31.332 139.362 30.792 139.122 30.192C138.894 29.592 138.78 28.968 138.78 28.32V27.942C138.78 27.27 138.9 26.634 139.14 26.034C139.392 25.422 139.746 24.882 140.202 24.414C140.67 23.934 141.234 23.562 141.894 23.298C142.554 23.022 143.298 22.884 144.126 22.884C144.954 22.884 145.698 23.022 146.358 23.298C147.018 23.562 147.576 23.934 148.032 24.414C148.5 24.882 148.854 25.422 149.094 26.034C149.334 26.634 149.454 27.27 149.454 27.942V28.32C149.454 28.968 149.334 29.592 149.094 30.192C148.866 30.792 148.524 31.332 148.068 31.812C147.612 32.28 147.054 32.652 146.394 32.928C145.734 33.204 144.978 33.342 144.126 33.342ZM144.126 31.2C144.738 31.2 145.254 31.068 145.674 30.804C146.094 30.528 146.412 30.162 146.628 29.706C146.844 29.238 146.952 28.71 146.952 28.122C146.952 27.522 146.838 26.994 146.61 26.538C146.394 26.07 146.07 25.704 145.638 25.44C145.218 25.164 144.714 25.026 144.126 25.026C143.538 25.026 143.028 25.164 142.596 25.44C142.176 25.704 141.852 26.07 141.624 26.538C141.396 26.994 141.282 27.522 141.282 28.122C141.282 28.71 141.39 29.238 141.606 29.706C141.834 30.162 142.158 30.528 142.578 30.804C142.998 31.068 143.514 31.2 144.126 31.2ZM151.771 33V19.86H154.273V33H151.771ZM150.547 21.732V19.86H154.273V21.732H150.547ZM157.255 33V19.86H159.757V33H157.255ZM156.031 21.732V19.86H159.757V21.732H156.031ZM166.498 33V19.86H169V27.528H168.568C168.568 26.544 168.694 25.71 168.946 25.026C169.198 24.342 169.57 23.82 170.062 23.46C170.566 23.1 171.202 22.92 171.97 22.92H172.078C173.194 22.92 174.04 23.304 174.616 24.072C175.192 24.84 175.48 25.956 175.48 27.42V33H172.978V27.186C172.978 26.562 172.798 26.07 172.438 25.71C172.09 25.35 171.628 25.17 171.052 25.17C170.44 25.17 169.942 25.374 169.558 25.782C169.186 26.178 169 26.7 169 27.348V33H166.498ZM178.638 33V23.226H181.14V33H178.638ZM177.27 25.098V23.226H181.14V25.098H177.27ZM179.556 22.056C179.064 22.056 178.698 21.93 178.458 21.678C178.23 21.414 178.116 21.09 178.116 20.706C178.116 20.298 178.23 19.968 178.458 19.716C178.698 19.464 179.064 19.338 179.556 19.338C180.048 19.338 180.408 19.464 180.636 19.716C180.864 19.968 180.978 20.298 180.978 20.706C180.978 21.09 180.864 21.414 180.636 21.678C180.408 21.93 180.048 22.056 179.556 22.056ZM187.57 33.306C186.226 33.306 185.17 33.024 184.402 32.46C183.646 31.884 183.25 31.092 183.214 30.084H185.464C185.5 30.42 185.686 30.726 186.022 31.002C186.358 31.278 186.886 31.416 187.606 31.416C188.206 31.416 188.68 31.308 189.028 31.092C189.388 30.876 189.568 30.582 189.568 30.21C189.568 29.886 189.43 29.628 189.154 29.436C188.89 29.244 188.434 29.118 187.786 29.058L186.922 28.968C185.83 28.848 184.99 28.536 184.402 28.032C183.814 27.528 183.52 26.856 183.52 26.016C183.52 25.344 183.688 24.78 184.024 24.324C184.36 23.868 184.822 23.526 185.41 23.298C186.01 23.058 186.694 22.938 187.462 22.938C188.662 22.938 189.634 23.202 190.378 23.73C191.122 24.258 191.512 25.032 191.548 26.052H189.298C189.274 25.716 189.106 25.428 188.794 25.188C188.482 24.948 188.032 24.828 187.444 24.828C186.916 24.828 186.508 24.93 186.22 25.134C185.932 25.338 185.788 25.602 185.788 25.926C185.788 26.238 185.902 26.478 186.13 26.646C186.37 26.814 186.754 26.928 187.282 26.988L188.146 27.078C189.298 27.198 190.198 27.516 190.846 28.032C191.506 28.548 191.836 29.244 191.836 30.12C191.836 30.768 191.656 31.332 191.296 31.812C190.948 32.28 190.456 32.646 189.82 32.91C189.184 33.174 188.434 33.306 187.57 33.306ZM198.15 33.126C197.25 33.126 196.506 33.012 195.918 32.784C195.342 32.544 194.91 32.148 194.622 31.596C194.334 31.032 194.19 30.276 194.19 29.328L194.208 20.472H196.548L196.53 29.49C196.53 29.97 196.656 30.342 196.908 30.606C197.172 30.858 197.544 30.984 198.024 30.984H199.554V33.126H198.15ZM192.642 25.062V23.226H199.554V25.062H192.642ZM206.3 33.342C205.436 33.342 204.674 33.204 204.014 32.928C203.354 32.652 202.796 32.28 202.34 31.812C201.884 31.332 201.536 30.792 201.296 30.192C201.068 29.592 200.954 28.968 200.954 28.32V27.942C200.954 27.27 201.074 26.634 201.314 26.034C201.566 25.422 201.92 24.882 202.376 24.414C202.844 23.934 203.408 23.562 204.068 23.298C204.728 23.022 205.472 22.884 206.3 22.884C207.128 22.884 207.872 23.022 208.532 23.298C209.192 23.562 209.75 23.934 210.206 24.414C210.674 24.882 211.028 25.422 211.268 26.034C211.508 26.634 211.628 27.27 211.628 27.942V28.32C211.628 28.968 211.508 29.592 211.268 30.192C211.04 30.792 210.698 31.332 210.242 31.812C209.786 32.28 209.228 32.652 208.568 32.928C207.908 33.204 207.152 33.342 206.3 33.342ZM206.3 31.2C206.912 31.2 207.428 31.068 207.848 30.804C208.268 30.528 208.586 30.162 208.802 29.706C209.018 29.238 209.126 28.71 209.126 28.122C209.126 27.522 209.012 26.994 208.784 26.538C208.568 26.07 208.244 25.704 207.812 25.44C207.392 25.164 206.888 25.026 206.3 25.026C205.712 25.026 205.202 25.164 204.77 25.44C204.35 25.704 204.026 26.07 203.798 26.538C203.57 26.994 203.456 27.522 203.456 28.122C203.456 28.71 203.564 29.238 203.78 29.706C204.008 30.162 204.332 30.528 204.752 30.804C205.172 31.068 205.688 31.2 206.3 31.2ZM213.818 33V23.226H215.798V27.366H215.744C215.744 25.962 216.044 24.9 216.644 24.18C217.244 23.46 218.126 23.1 219.29 23.1H219.65V25.278H218.966C218.126 25.278 217.472 25.506 217.004 25.962C216.548 26.406 216.32 27.054 216.32 27.906V33H213.818ZM221.335 36.852V34.71H223.171C223.519 34.71 223.807 34.662 224.035 34.566C224.275 34.482 224.473 34.338 224.629 34.134C224.785 33.942 224.905 33.672 224.989 33.324L227.617 23.226H230.011L227.113 33.864C226.921 34.596 226.651 35.178 226.303 35.61C225.955 36.054 225.505 36.372 224.953 36.564C224.413 36.756 223.741 36.852 222.937 36.852H221.335ZM224.377 32.784V30.804H226.465V32.784H224.377ZM223.531 32.784L220.363 23.226H222.883L225.889 32.784H223.531Z" fill="white"/>
<defs>
<clipPath id="clip0_1_500">
<rect width="30" height="30" fill="white" transform="translate(36.5 11.5)"/>
</clipPath>
</defs>
</svg>
